<svg width="196" height="45" viewBox="0 0 196 45" fill="none" xmlns="http://www.w3.org/2000/svg">
<path d="M36.3531 41.5385H0V45H36.3531V41.5385Z" fill="#253856"/>
<path d="M0 40.9615H36.3531V45H0V40.9615Z" fill="#253856"/>
<path d="M0 5.25181L18.1765 0L36.3531 5.25181L36.3531 37.5H0V5.25181Z" fill="#253856"/>
<path d="M49.9562 21.3462V8.53846H44.7026V5.07692H59.5253V8.53846H54.2717V21.3462H49.9562Z" fill="#253856"/>
<path d="M60.453 21.3462V5.07692H72.1329V8.35385H64.5808V11.4462H71.5934V14.7231H64.5808V18.0692H72.1329V21.3462H60.453Z" fill="#253856"/>
<path d="M74.1559 21.3462V5.07692H82.1067C83.983 5.07692 85.4293 5.53077 86.4456 6.43846C87.4776 7.33077 87.9935 8.57692 87.9935 10.1769C87.9935 11.3923 87.6808 12.4154 87.0554 13.2462C86.4456 14.0615 85.5544 14.6308 84.3817 14.9538C85.2573 15.1846 85.9609 15.7769 86.4925 16.7308L89.0724 21.3462H84.3348L81.4734 16.1769C81.2858 15.8538 81.0435 15.6231 80.7464 15.4846C80.4649 15.3462 80.1366 15.2769 79.7613 15.2769H78.4714V21.3462H74.1559ZM78.4714 12.2769H81.3327C83.037 12.2769 83.8892 11.6154 83.8892 10.2923C83.8892 8.98461 83.037 8.33077 81.3327 8.33077H78.4714V12.2769Z" fill="#253856"/>
<path d="M90.0119 21.3462V5.07692H97.9626C99.8389 5.07692 101.285 5.53077 102.302 6.43846C103.333 7.33077 103.849 8.57692 103.849 10.1769C103.849 11.3923 103.537 12.4154 102.911 13.2462C102.302 14.0615 101.41 14.6308 100.238 14.9538C101.113 15.1846 101.817 15.7769 102.348 16.7308L104.928 21.3462H100.191L97.3294 16.1769C97.1417 15.8538 96.8994 15.6231 96.6023 15.4846C96.3209 15.3462 95.9925 15.2769 95.6173 15.2769H94.3273V21.3462H90.0119ZM94.3273 12.2769H97.1886C98.8929 12.2769 99.7451 11.6154 99.7451 10.2923C99.7451 8.98461 98.8929 8.33077 97.1886 8.33077H94.3273V12.2769Z" fill="#253856"/>
<path d="M105.868 21.3462V5.07692H110.183V21.3462H105.868Z" fill="#253856"/>
<path d="M112.471 21.3462V5.07692H115.637L123.236 14.4V5.07692H127.223V21.3462H124.08L116.481 12.0231V21.3462H112.471Z" fill="#253856"/>
<path d="M51.9967 43.5231C50.7302 43.5231 49.6278 43.3308 48.6897 42.9462C47.7516 42.5462 47.0245 42 46.5085 41.3077C46.0082 40.6 45.758 39.7769 45.758 38.8385C45.758 37.7923 46.0473 36.9 46.6258 36.1615C47.2199 35.4231 47.9705 34.8154 48.8773 34.3385C48.377 33.8462 48.0017 33.3154 47.7516 32.7462C47.5014 32.1615 47.3763 31.5692 47.3763 30.9692C47.3763 30.1385 47.5874 29.4077 48.0095 28.7769C48.4473 28.1308 49.0493 27.6308 49.8155 27.2769C50.5973 26.9231 51.5119 26.7462 52.5595 26.7462C53.9511 26.7462 55.0534 27.1 55.8665 27.8077C56.6952 28.5 57.1095 29.4385 57.1095 30.6231C57.1095 32.3615 56.187 33.7462 54.342 34.7769L56.7343 37.0615C57.0157 36.4923 57.2346 35.8846 57.391 35.2385C57.563 34.5923 57.6724 33.9231 57.7193 33.2308H61.1201C61.0732 34.3538 60.8856 35.4385 60.5572 36.4846C60.2289 37.5308 59.7833 38.4846 59.2204 39.3461L63.442 43.2692H58.376L56.8985 41.8615C56.1949 42.3846 55.4209 42.7923 54.5766 43.0846C53.7479 43.3769 52.8879 43.5231 51.9967 43.5231ZM52.5595 29.4231C52.1217 29.4231 51.7778 29.5538 51.5276 29.8154C51.2774 30.0769 51.1523 30.4231 51.1523 30.8538C51.1523 31.1769 51.2305 31.4846 51.3869 31.7769C51.5589 32.0692 51.8325 32.4077 52.2077 32.7923C52.8175 32.4846 53.2475 32.1769 53.4977 31.8692C53.7635 31.5461 53.8964 31.1692 53.8964 30.7385C53.8964 30.2923 53.7713 29.9615 53.5211 29.7462C53.2866 29.5308 52.9661 29.4231 52.5595 29.4231ZM52.2781 40.4308C52.7159 40.4308 53.1146 40.3692 53.4742 40.2462C53.8495 40.1231 54.2091 39.9385 54.5531 39.6923L51.0585 36.3923C50.2767 36.9308 49.8858 37.6462 49.8858 38.5385C49.8858 39.1231 50.0969 39.5846 50.5191 39.9231C50.9412 40.2615 51.5276 40.4308 52.2781 40.4308Z" fill="#253856"/>
<path d="M77.6727 43.5231C75.8433 43.5231 74.2719 43.1769 72.9585 42.4846C71.6451 41.7923 70.6366 40.8154 69.933 39.5538C69.245 38.2923 68.901 36.8154 68.901 35.1231C68.901 33.4308 69.245 31.9615 69.933 30.7154C70.6366 29.4538 71.6451 28.4769 72.9585 27.7846C74.2719 27.0923 75.8433 26.7462 77.6727 26.7462C78.7672 26.7462 79.8226 26.9154 80.8389 27.2538C81.8552 27.5769 82.6761 28.0077 83.3015 28.5462L82.0116 31.8923C81.3236 31.4 80.6357 31.0385 79.9477 30.8077C79.2597 30.5615 78.5561 30.4385 77.8368 30.4385C76.3827 30.4385 75.2882 30.8461 74.5533 31.6615C73.8185 32.4615 73.451 33.6154 73.451 35.1231C73.451 36.6462 73.8185 37.8154 74.5533 38.6308C75.2882 39.4308 76.3827 39.8308 77.8368 39.8308C78.5561 39.8308 79.2597 39.7154 79.9477 39.4846C80.6357 39.2385 81.3236 38.8692 82.0116 38.3769L83.3015 41.7231C82.6761 42.2615 81.8552 42.7 80.8389 43.0385C79.8226 43.3615 78.7672 43.5231 77.6727 43.5231Z" fill="#253856"/>
<path d="M84.721 43.2692V27H89.0365V33.2769H95.8615V27H100.154V43.2692H95.8615V36.7615H89.0365V43.2692H84.721Z" fill="#253856"/>
<path d="M102.455 43.2692V27H114.135V30.2769H106.583V33.3692H113.596V36.6462H106.583V39.9923H114.135V43.2692H102.455Z" fill="#253856"/>
<path d="M121.692 43.2692L114.163 27H118.76L123.498 37.8231L128.236 27H132.668L125.116 43.2692H121.692Z" fill="#253856"/>
<path d="M132.907 43.2692V27H137.223V43.2692H132.907Z" fill="#253856"/>
<path d="M139.51 43.2692V27H143.825V39.7385H151.19V43.2692H139.51Z" fill="#253856"/>
<path d="M152.526 43.2692V27H156.841V39.7385H164.206V43.2692H152.526Z" fill="#253856"/>
<path d="M172.6 43.5231C170.927 43.5231 169.457 43.1769 168.19 42.4846C166.94 41.7769 165.962 40.7923 165.259 39.5308C164.555 38.2692 164.203 36.8 164.203 35.1231C164.203 33.4308 164.547 31.9615 165.235 30.7154C165.939 29.4538 166.924 28.4769 168.19 27.7846C169.457 27.0923 170.927 26.7462 172.6 26.7462C174.273 26.7462 175.735 27.0923 176.986 27.7846C178.252 28.4769 179.237 29.4538 179.941 30.7154C180.644 31.9615 180.996 33.4308 180.996 35.1231C180.996 36.8 180.644 38.2692 179.941 39.5308C179.237 40.7923 178.252 41.7769 176.986 42.4846C175.735 43.1769 174.273 43.5231 172.6 43.5231ZM172.6 39.9692C173.819 39.9692 174.773 39.5462 175.461 38.7C176.165 37.8385 176.516 36.6462 176.516 35.1231C176.516 33.6 176.172 32.4154 175.484 31.5692C174.797 30.7231 173.835 30.3 172.6 30.3C171.364 30.3 170.403 30.7231 169.715 31.5692C169.027 32.4154 168.683 33.6 168.683 35.1231C168.683 36.6462 169.027 37.8385 169.715 38.7C170.403 39.5462 171.364 39.9692 172.6 39.9692Z" fill="#253856"/>
<path d="M185.772 43.2692V30.4615H180.518V27H195.341V30.4615H190.087V43.2692H185.772Z" fill="#253856"/>
</svg>
