<svg width="99" height="22" viewBox="0 0 99 22" fill="none" xmlns="http://www.w3.org/2000/svg">
<path d="M18.424 20.3077H0V22H18.424V20.3077Z" fill="#F4F3EF"/>
<path d="M0 20.0256H18.424V22H0V20.0256Z" fill="#F4F3EF"/>
<path d="M0 2.56755L9.21199 0L18.424 2.56755L18.424 18.3333H0V2.56755Z" fill="#F4F3EF"/>
<path d="M25.3181 10.4359V4.17436H22.6556V2.48205H30.1678V4.17436H27.5052V10.4359H25.3181Z" fill="#F4F3EF"/>
<path d="M30.6379 10.4359V2.48205H36.5574V4.0841H32.73V5.5959H36.284V7.19795H32.73V8.83385H36.5574V10.4359H30.6379Z" fill="#F4F3EF"/>
<path d="M37.5827 10.4359V2.48205H41.6122C42.5631 2.48205 43.2961 2.70393 43.8112 3.14769C44.3342 3.58393 44.5957 4.19316 44.5957 4.97538C44.5957 5.56957 44.4372 6.06974 44.1202 6.4759C43.8112 6.87453 43.3595 7.15282 42.7652 7.31077C43.2089 7.42359 43.5655 7.71316 43.835 8.17949L45.1425 10.4359H42.7414L41.2913 7.90872C41.1962 7.75077 41.0733 7.63795 40.9228 7.57026C40.7801 7.50256 40.6137 7.46872 40.4235 7.46872H39.7698V10.4359H37.5827ZM39.7698 6.00205H41.2199C42.0837 6.00205 42.5156 5.67863 42.5156 5.03179C42.5156 4.39248 42.0837 4.07282 41.2199 4.07282H39.7698V6.00205Z" fill="#F4F3EF"/>
<path d="M45.6186 10.4359V2.48205H49.6481C50.599 2.48205 51.332 2.70393 51.8471 3.14769C52.3701 3.58393 52.6316 4.19316 52.6316 4.97538C52.6316 5.56957 52.4731 6.06974 52.1561 6.4759C51.8471 6.87453 51.3954 7.15282 50.8011 7.31077C51.2448 7.42359 51.6014 7.71316 51.8708 8.17949L53.1783 10.4359H50.7773L49.3271 7.90872C49.232 7.75077 49.1092 7.63795 48.9587 7.57026C48.816 7.50256 48.6496 7.46872 48.4594 7.46872H47.8057V10.4359H45.6186ZM47.8057 6.00205H49.2558C50.1196 6.00205 50.5514 5.67863 50.5514 5.03179C50.5514 4.39248 50.1196 4.07282 49.2558 4.07282H47.8057V6.00205Z" fill="#F4F3EF"/>
<path d="M53.6544 10.4359V2.48205H55.8416V10.4359H53.6544Z" fill="#F4F3EF"/>
<path d="M57.0008 10.4359V2.48205H58.6054L62.4566 7.04V2.48205H64.4773V10.4359H62.8845L59.0333 5.87795V10.4359H57.0008Z" fill="#F4F3EF"/>
<path d="M26.3522 21.2779C25.7104 21.2779 25.1517 21.1839 24.6762 20.9959C24.2008 20.8003 23.8323 20.5333 23.5708 20.1949C23.3172 19.8489 23.1904 19.4465 23.1904 18.9877C23.1904 18.4762 23.337 18.04 23.6302 17.679C23.9314 17.3179 24.3117 17.0209 24.7713 16.7877C24.5178 16.547 24.3276 16.2875 24.2008 16.0092C24.074 15.7234 24.0106 15.4338 24.0106 15.1405C24.0106 14.7344 24.1176 14.3771 24.3315 14.0687C24.5534 13.7528 24.8585 13.5084 25.2468 13.3354C25.643 13.1624 26.1066 13.0759 26.6375 13.0759C27.3428 13.0759 27.9014 13.2489 28.3135 13.5949C28.7335 13.9333 28.9435 14.3921 28.9435 14.9713C28.9435 15.8212 28.4759 16.4981 27.5409 17.0021L28.7533 18.119C28.8959 17.8407 29.0069 17.5436 29.0861 17.2277C29.1733 16.9118 29.2288 16.5846 29.2525 16.2462H30.9761C30.9523 16.7952 30.8572 17.3255 30.6908 17.8369C30.5244 18.3484 30.2985 18.8147 30.0133 19.2359L32.1528 21.1538H29.5853L28.8365 20.4656C28.4799 20.7214 28.0877 20.9207 27.6597 21.0636C27.2398 21.2065 26.8039 21.2779 26.3522 21.2779ZM26.6375 14.3846C26.4156 14.3846 26.2413 14.4485 26.1145 14.5764C25.9877 14.7043 25.9243 14.8735 25.9243 15.0841C25.9243 15.2421 25.9639 15.3925 26.0432 15.5354C26.1304 15.6783 26.269 15.8438 26.4592 16.0318C26.7683 15.8814 26.9862 15.7309 27.113 15.5805C27.2477 15.4226 27.315 15.2383 27.315 15.0277C27.315 14.8096 27.2516 14.6479 27.1248 14.5426C27.006 14.4373 26.8435 14.3846 26.6375 14.3846ZM26.4949 19.7662C26.7168 19.7662 26.9188 19.7361 27.1011 19.6759C27.2913 19.6157 27.4735 19.5255 27.6479 19.4051L25.8768 17.7918C25.4806 18.055 25.2825 18.4048 25.2825 18.841C25.2825 19.1268 25.3894 19.3525 25.6034 19.5179C25.8173 19.6834 26.1145 19.7662 26.4949 19.7662Z" fill="#F4F3EF"/>
<path d="M39.365 21.2779C38.4379 21.2779 37.6415 21.1087 36.9758 20.7703C36.3102 20.4318 35.7991 19.9542 35.4425 19.3374C35.0938 18.7207 34.9195 17.9986 34.9195 17.1713C34.9195 16.3439 35.0938 15.6256 35.4425 15.0164C35.7991 14.3997 36.3102 13.9221 36.9758 13.5836C37.6415 13.2451 38.4379 13.0759 39.365 13.0759C39.9197 13.0759 40.4546 13.1586 40.9697 13.3241C41.4847 13.482 41.9008 13.6926 42.2177 13.9559L41.564 15.5918C41.2153 15.3511 40.8667 15.1744 40.518 15.0615C40.1693 14.9412 39.8127 14.881 39.4482 14.881C38.7112 14.881 38.1565 15.0803 37.7841 15.479C37.4117 15.8701 37.2254 16.4342 37.2254 17.1713C37.2254 17.9159 37.4117 18.4875 37.7841 18.8862C38.1565 19.2773 38.7112 19.4728 39.4482 19.4728C39.8127 19.4728 40.1693 19.4164 40.518 19.3036C40.8667 19.1832 41.2153 19.0027 41.564 18.762L42.2177 20.3979C41.9008 20.6612 41.4847 20.8756 40.9697 21.041C40.4546 21.199 39.9197 21.2779 39.365 21.2779Z" fill="#F4F3EF"/>
<path d="M42.9372 21.1538V13.2H45.1243V16.2687H48.5832V13.2H50.7584V21.1538H48.5832V17.9723H45.1243V21.1538H42.9372Z" fill="#F4F3EF"/>
<path d="M51.9249 21.1538V13.2H57.8443V14.8021H54.0169V16.3138H57.5709V17.9159H54.0169V19.5518H57.8443V21.1538H51.9249Z" fill="#F4F3EF"/>
<path d="M61.6743 21.1538L57.8587 13.2H60.1885L62.5895 18.4913L64.9906 13.2H67.2371L63.4097 21.1538H61.6743Z" fill="#F4F3EF"/>
<path d="M67.3582 21.1538V13.2H69.5453V21.1538H67.3582Z" fill="#F4F3EF"/>
<path d="M70.7045 21.1538V13.2H72.8916V19.4277H76.624V21.1538H70.7045Z" fill="#F4F3EF"/>
<path d="M77.301 21.1538V13.2H79.4881V19.4277H83.2205V21.1538H77.301Z" fill="#F4F3EF"/>
<path d="M87.4746 21.2779C86.6267 21.2779 85.8818 21.1087 85.24 20.7703C84.606 20.4243 84.1107 19.9429 83.7542 19.3262C83.3976 18.7094 83.2193 17.9911 83.2193 17.1713C83.2193 16.3439 83.3936 15.6256 83.7423 15.0164C84.0989 14.3997 84.5981 13.9221 85.24 13.5836C85.8818 13.2451 86.6267 13.0759 87.4746 13.0759C88.3225 13.0759 89.0634 13.2451 89.6974 13.5836C90.3392 13.9221 90.8385 14.3997 91.1951 15.0164C91.5517 15.6256 91.73 16.3439 91.73 17.1713C91.73 17.9911 91.5517 18.7094 91.1951 19.3262C90.8385 19.9429 90.3392 20.4243 89.6974 20.7703C89.0634 21.1087 88.3225 21.2779 87.4746 21.2779ZM87.4746 19.5405C88.0927 19.5405 88.5761 19.3337 88.9248 18.92C89.2813 18.4988 89.4597 17.9159 89.4597 17.1713C89.4597 16.4267 89.2853 15.8475 88.9366 15.4338C88.588 15.0202 88.1006 14.8133 87.4746 14.8133C86.8486 14.8133 86.3613 15.0202 86.0126 15.4338C85.6639 15.8475 85.4896 16.4267 85.4896 17.1713C85.4896 17.9159 85.6639 18.4988 86.0126 18.92C86.3613 19.3337 86.8486 19.5405 87.4746 19.5405Z" fill="#F4F3EF"/>
<path d="M94.1503 21.1538V14.8923H91.4878V13.2H99V14.8923H96.3374V21.1538H94.1503Z" fill="#F4F3EF"/>
</svg>
